<svg xmlns="http://www.w3.org/2000/svg" viewBox="0 0 100 100">
  <defs>
    <linearGradient id="lemonGrad" x1="0%" y1="0%" x2="100%" y2="100%">
      <stop offset="0%" style="stop-color:#4ADE80"/>
      <stop offset="100%" style="stop-color:#22C55E"/>
    </linearGradient>
  </defs>
  <circle cx="50" cy="50" r="45" fill="rgba(34, 197, 94, 0.1)" stroke="url(#lemonGrad)" stroke-width="2"/>
  <!-- Glass -->
  <path d="M40 35 L40 75 Q40 82 50 82 Q60 82 60 75 L60 35" fill="none" stroke="url(#lemonGrad)" stroke-width="2"/>
  <!-- Liquid -->
  <path d="M42 45 L42 72 Q42 78 50 78 Q58 78 58 72 L58 45" fill="url(#lemonGrad)" opacity="0.4"/>
  <!-- Lemon slice on rim -->
  <path d="M60 38 Q65 40 65 45 Q65 50 60 52" stroke="url(#lemonGrad)" stroke-width="2" fill="none"/>
  <line x1="60" y1="38" x2="63" y2="45" stroke="url(#lemonGrad)" stroke-width="1"/>
  <line x1="60" y1="45" x2="65" y2="45" stroke="url(#lemonGrad)" stroke-width="1"/>
  <line x1="60" y1="52" x2="63" y2="45" stroke="url(#lemonGrad)" stroke-width="1"/>
  <!-- Bubbles -->
  <circle cx="45" cy="60" r="2" fill="url(#lemonGrad)" opacity="0.5"/>
  <circle cx="55" cy="65" r="1.5" fill="url(#lemonGrad)" opacity="0.5"/>
</svg>
